<svg width="20" height="21" viewBox="0 0 20 21" fill="none" xmlns="http://www.w3.org/2000/svg">
<g opacity="0.6">
<path d="M16.8658 0.711182H3.13467C1.67053 0.711182 0.479492 1.90222 0.479492 3.36636V17.0974C0.479492 18.5616 1.67053 19.7526 3.13467 19.7526H9.27952V13.2285H7.00365V10.5733H9.27952V7.9181C9.27952 6.24534 10.6413 4.88361 12.314 4.88361H15.3485V7.53879H12.883C12.3595 7.53879 11.9347 7.96362 11.9347 8.48707V10.5733H15.2802L14.8364 13.2285H11.9347V19.7526H16.8658C18.3299 19.7526 19.5209 18.5616 19.5209 17.0974V3.36636C19.5209 1.90222 18.3299 0.711182 16.8658 0.711182ZM18.7623 17.0974C18.7623 18.1443 17.9127 18.994 16.8658 18.994H12.6933V13.9871H15.4813L16.1754 9.81466H12.6933V8.29741H16.1071V4.12499H12.314C10.224 4.12499 8.5209 5.8281 8.5209 7.9181V9.81466H6.24503V13.9871H8.5209V18.994H3.13467C2.08777 18.994 1.23812 18.1443 1.23812 17.0974V3.36636C1.23812 2.31946 2.08777 1.4698 3.13467 1.4698H16.8658C17.9127 1.4698 18.7623 2.31946 18.7623 3.36636V17.0974Z" fill="white"/>
<path d="M9.27952 19.8026H9.32952V19.7526V13.2285V13.1785H9.27952H7.05365V10.6233H9.27952H9.32952V10.5733V7.9181C9.32952 6.27295 10.6689 4.93361 12.314 4.93361H15.2985V7.48879H12.883C12.3319 7.48879 11.8847 7.93601 11.8847 8.48707V10.5733V10.6233H11.9347H15.2212L14.7941 13.1785H11.9347H11.8847V13.2285V19.7526V19.8026H11.9347H16.8658C18.3575 19.8026 19.5709 18.5892 19.5709 17.0974V3.36636C19.5709 1.87461 18.3575 0.661182 16.8658 0.661182H3.13467C1.64292 0.661182 0.429492 1.87461 0.429492 3.36636V17.0974C0.429492 18.5892 1.64292 19.8026 3.13467 19.8026H9.27952ZM16.1754 9.76466H12.7433V8.34741H16.1071H16.1571V8.29741V4.12499V4.07499H16.1071H12.314C10.1964 4.07499 8.4709 5.80048 8.4709 7.9181V9.76466H6.24503H6.19503V9.81466V13.9871V14.0371H6.24503H8.4709V18.944H3.13467C2.11539 18.944 1.28812 18.1167 1.28812 17.0974V3.36636C1.28812 2.34708 2.11539 1.5198 3.13467 1.5198H16.8658C17.885 1.5198 18.7123 2.34708 18.7123 3.36636V17.0974C18.7123 18.1167 17.885 18.944 16.8658 18.944H12.7433V14.0371H15.4813H15.5236L15.5306 13.9953L16.2247 9.82287L16.2344 9.76466H16.1754Z" stroke="white" stroke-opacity="0.6" stroke-width="0.1"/>
</g>
</svg>
