<svg version="1.1" id="レイヤー_1" xmlns="http://www.w3.org/2000/svg" xmlns:xlink="http://www.w3.org/1999/xlink" width="70px" height="15.9px" viewBox="0 0 70 15.9" style="fill:#657580;"> 
<path d="M20.3,2.9c-0.8,0-1.4-0.6-1.4-1.3c0-0.7,0.6-1.3,1.4-1.3c0.8,0,1.4,0.6,1.4,1.3C21.7,2.3,21.1,2.9,20.3,2.9
	 M21.5,14.5v-7c0-0.9,0.4-1.2,0.8-1.3c-0.3,0-0.8,0-1.1,0c-0.4,0-0.7,0-0.8,0l-1.9,0c0.4,0.1,0.8,0.4,0.8,1.3v6.9
	c0,0.9-0.5,1.2-1,1.3c0.3,0,0.8,0,1.2,0c0.5,0,0.8,0,0.9,0l2.1,0C22,15.7,21.5,15.3,21.5,14.5 M13.1,13.8l-5.3-8l3.8-3.9l0,0
	c1-1.1,2-1.6,2.6-1.7C14.3,0,14.4,0,14.5,0c-0.4,0-0.7,0-1.1,0c-0.4,0-0.8,0-1.1,0c-0.2,0-0.4,0-0.7,0c-0.4,0-0.9,0-1.4,0
	c0.4,0.1,0.9,0.4,0.9,1.3c0,0.2,0,0.3-0.1,0.5c0,0.1-0.2,0.4-0.5,0.7L4.3,9H4.2V8.7V1.4c0-1.3,1.1-1.4,1.7-1.4c0,0,0.1,0,0.1,0
	C5.7,0,5.3,0,5,0C4.4,0,3.8,0,3,0C2.1,0,1.5,0,1,0C0.6,0,0.3,0,0,0c0,0,0,0,0,0c0.6,0.1,1.7,0.2,1.7,1.4v12.9c0,1.3-1.1,1.4-1.7,1.5
	c0,0,0,0-0.1,0c0.3,0,0.6,0,1,0c0.5,0,1.1,0,2,0c0.9,0,1.5,0,2,0c0.4,0,0.7,0,1,0c0,0-0.1,0-0.1,0c-0.6-0.1-1.7-0.2-1.7-1.4V9.5
	l2-2.1l5.4,8.4c0.8,0,1.9,0,2.7,0c0.6,0,1,0,1.2,0C15,15.7,14.1,15.4,13.1,13.8 M54.7,13.8l-5.3-8l3.8-3.9l0,0c1-1.1,2-1.6,2.6-1.7
	C56,0,56.1,0,56.2,0c-0.4,0-0.7,0-1.1,0c-0.4,0-0.8,0-1.1,0c-0.2,0-0.4,0-0.7,0c-0.4,0-0.9,0-1.4,0c0.4,0.1,0.9,0.4,0.9,1.3
	c0,0.2,0,0.3-0.1,0.5c0,0.1-0.2,0.4-0.5,0.7h0L46,9h-0.1V8.7V1.4c0-1.3,1.1-1.4,1.7-1.4c0,0,0.1,0,0.1,0c-0.3,0-0.7,0-1,0
	c-0.5,0-1.1,0-2,0c-0.9,0-1.5,0-2,0c-0.3,0-0.7,0-1,0c0,0,0,0,0,0c0.6,0.1,1.7,0.2,1.7,1.4v12.9c0,1.3-1.1,1.4-1.7,1.5
	c0,0,0,0-0.1,0c0.3,0,0.6,0,1,0c0.5,0,1.1,0,2,0c0.9,0,1.5,0,2,0c0.4,0,0.7,0,1,0c0,0-0.1,0-0.1,0c-0.6-0.1-1.7-0.2-1.7-1.4V9.5
	l2-2.1l5.4,8.4c0.8,0,1.9,0,2.7,0c0.6,0,1,0,1.2,0C56.7,15.7,55.8,15.4,54.7,13.8 M29.9,9.6l0,0.6c0,2.2,1.7,4.6,4.5,4.6
	c1.3,0,2.2-0.3,2.9-0.8c0.3-0.2,0.5-0.4,0.7-0.6c-0.6,1.1-2,2.6-4.7,2.6c-3.2,0-5.5-2.2-5.5-5.4c0-2.2,1.7-4.6,4.3-5.2
	c0.3-0.1,0.8-0.2,1.3-0.2c0.3,0,0.5,0,0.7,0.1c0,0,0,0,0,0c2.5,0.3,4,1.9,4.2,4.3L29.9,9.6z M31.3,5.9c-0.9,0.8-1.4,2.1-1.4,3.4v0
	H36V8.9c0-1.5-0.3-2.5-1-3.1c-0.2-0.2-0.5-0.3-0.6-0.3c-0.3-0.1-0.7-0.1-1.1-0.1c-0.5,0-1,0.1-1.3,0.2C31.8,5.6,31.5,5.8,31.3,5.9
	 M69.5,15.6c0.2,0,0.4,0,0.5-0.1c-0.4,0.2-1,0.4-1.6,0.4c-1.1,0-1.6-0.3-1.9-1.3c-0.6,0.3-1.2,0.5-1.9,0.8c-0.9,0.3-1.8,0.4-2.1,0.5
	c-0.2,0-0.5,0.1-0.7,0.1c-1.5,0-2.4-0.7-2.4-1.8c0-1.2,0.8-2.1,2.8-3c0.4-0.2,1.3-0.7,2.3-1c0.6-0.2,1.3-0.4,1.9-0.6l0-3.2
	c0-0.4-0.1-0.7-0.4-0.9c-0.1,0-0.1,0-0.2,0c-1,0-1.9,0.2-2.3,0.4c-0.1,0-0.3,0.1-0.4,0.3c-0.3,0.4-0.6,0.9-0.7,1.5
	c-0.3,1.4-0.7,1.6-1.6,1.6c-0.6,0-1-0.3-1-0.9c0-1,1.5-2.2,3.4-2.8c0.3-0.1,1.4-0.5,2.6-0.5c0.5,0,0.8,0.1,1.1,0.2
	c1.1,0.3,1.7,1,1.7,2.3v7C68.7,15.1,69,15.6,69.5,15.6 M64.6,15.2c0.6-0.2,1.3-0.5,1.9-0.8l0-0.4l0-4.3c-0.5,0.2-1.2,0.4-1.8,0.6
	c-0.7,0.3-1.4,0.6-1.9,0.9c-0.8,0.6-1.1,1.3-1.1,2.1c0,1.2,0.5,2,1.3,2.2C63.4,15.5,64,15.4,64.6,15.2"></path>
</svg>