<svg version="1.1" xmlns="http://www.w3.org/2000/svg" xmlns:xlink="http://www.w3.org/1999/xlink" width="58px" height="65px" viewBox="0 0 58 65">
    <title>KieKa</title>
<path style="fill:#657580;" d="M16.83,54.262c-0.655,0-1.167-0.477-1.167-1.088c0-0.609,0.512-1.087,1.167-1.087
	c0.655,0,1.168,0.477,1.168,1.087C17.997,53.784,17.485,54.262,16.83,54.262 M17.787,63.794v-5.732c0-0.747,0.353-1,0.68-1.104
	c-0.266,0.005-0.63,0.014-0.944,0.022c-0.3,0.008-0.554,0.015-0.631,0.015l-1.596-0.035c0.333,0.107,0.703,0.359,0.703,1.103v5.712
	c0,0.736-0.429,0.995-0.836,1.101c0.289-0.005,0.645-0.012,0.96-0.019c0.375-0.008,0.692-0.015,0.77-0.015l1.713,0.031
	C18.204,64.761,17.787,64.502,17.787,63.794 M10.817,63.222l-4.373-6.595l3.137-3.214l0.026-0.026
	c0.849-0.91,1.65-1.282,2.172-1.433c0.087-0.027,0.171-0.047,0.249-0.066c-0.298,0.002-0.606,0.012-0.906,0.021
	c-0.322,0.01-0.633,0.019-0.909,0.019c-0.144,0-0.352-0.006-0.602-0.014c-0.331-0.01-0.737-0.023-1.167-0.025
	c0.33,0.102,0.728,0.346,0.728,1.067c0,0.145-0.02,0.279-0.052,0.409c-0.035,0.105-0.136,0.343-0.402,0.616l-5.17,5.297H3.461v-0.26
	v-5.944c0-1.028,0.916-1.125,1.408-1.177c0.026-0.003,0.055-0.006,0.085-0.009c-0.259,0.017-0.54,0.007-0.846,0.015
	c-0.422,0.011-0.924,0.025-1.646,0.025c-0.722,0-1.224-0.014-1.646-0.025c-0.289-0.008-0.541-0.014-0.8-0.015
	c0.011,0.001,0.022,0.002,0.033,0.003c0.494,0.048,1.414,0.139,1.414,1.183v10.6c0,1.058-0.922,1.152-1.417,1.202
	C0.031,64.878,0.016,64.88,0,64.881c0.265,0,0.521-0.007,0.816-0.015c0.422-0.012,0.924-0.025,1.646-0.025
	c0.722,0,1.224,0.013,1.646,0.025c0.308,0.008,0.561,0.009,0.853,0.015c-0.032-0.004-0.064-0.007-0.092-0.01
	c-0.492-0.052-1.408-0.149-1.408-1.177v-4.011l1.673-1.714l4.469,6.872c0.683,0.002,1.573,0.016,2.251,0.027
	c0.476,0.008,0.823,0.012,0.97,0.012C12.406,64.779,11.686,64.549,10.817,63.222 M45.351,63.222l-4.373-6.595l3.137-3.214
	l0.025-0.026c0.85-0.91,1.651-1.282,2.172-1.433c0.087-0.027,0.171-0.047,0.249-0.066c-0.299,0.002-0.607,0.012-0.906,0.021
	c-0.322,0.01-0.633,0.019-0.909,0.019c-0.144,0-0.352-0.006-0.602-0.014c-0.331-0.01-0.737-0.023-1.167-0.025
	c0.33,0.102,0.728,0.346,0.728,1.067c0,0.145-0.019,0.279-0.052,0.409c-0.034,0.105-0.135,0.343-0.402,0.616h0l-5.17,5.297h-0.086
	v-0.26v-5.944c0-1.028,0.916-1.125,1.408-1.177c0.026-0.003,0.055-0.006,0.085-0.009c-0.259,0.017-0.539,0.007-0.846,0.015
	c-0.422,0.011-0.924,0.025-1.646,0.025c-0.722,0-1.224-0.014-1.646-0.025c-0.289-0.008-0.54-0.014-0.8-0.015
	c0.011,0.001,0.022,0.002,0.033,0.003c0.494,0.048,1.414,0.139,1.414,1.183v10.6c0,1.058-0.922,1.152-1.417,1.202
	c-0.014,0.001-0.03,0.003-0.046,0.005c0.265,0,0.521-0.007,0.816-0.015c0.422-0.012,0.924-0.025,1.646-0.025
	c0.722,0,1.224,0.013,1.646,0.025c0.309,0.008,0.561,0.009,0.853,0.015c-0.032-0.004-0.064-0.007-0.092-0.01
	c-0.492-0.052-1.408-0.149-1.408-1.177v-4.011l1.673-1.714l4.469,6.872c0.683,0.002,1.573,0.016,2.251,0.027
	c0.476,0.008,0.823,0.012,0.97,0.012C46.94,64.779,46.22,64.549,45.351,63.222 M24.752,59.77l0,0.516
	c0,1.811,1.418,3.767,3.708,3.767c1.046,0,1.828-0.213,2.389-0.65c0.242-0.189,0.419-0.367,0.552-0.529
	C30.906,63.767,29.721,65,27.515,65c-2.68,0-4.552-1.824-4.552-4.436c0-1.823,1.407-3.753,3.594-4.238
	c0.283-0.071,0.638-0.131,1.054-0.131c0.215,0,0.409,0.018,0.588,0.043c-0.003-0.001-0.006-0.002-0.01-0.003
	c2.032,0.208,3.345,1.541,3.449,3.534L24.752,59.77z M25.939,56.773c-0.733,0.651-1.146,1.731-1.187,2.771v0.006h5.105v-0.333
	c0-1.218-0.275-2.056-0.823-2.544c-0.186-0.139-0.398-0.211-0.528-0.245c-0.247-0.057-0.547-0.102-0.895-0.102
	c-0.447,0-0.825,0.073-1.112,0.153C26.347,56.527,26.136,56.617,25.939,56.773 M57.574,64.707c0.162,0,0.303-0.018,0.426-0.046
	C57.637,64.843,57.176,65,56.713,65c-0.899,0-1.348-0.266-1.563-1.054c-0.47,0.206-1.026,0.438-1.537,0.625
	c-0.705,0.258-1.475,0.355-1.7,0.379c-0.2,0.031-0.399,0.05-0.6,0.05c-1.231,0-1.966-0.562-1.966-1.504
	c0-0.961,0.665-1.698,2.357-2.441c0.359-0.194,1.101-0.577,1.878-0.861c0.52-0.19,1.074-0.367,1.538-0.507l0.007-2.591
	c0-0.307-0.118-0.542-0.318-0.702c-0.062-0.005-0.118-0.012-0.187-0.014c-0.815-0.029-1.573,0.193-1.932,0.317
	c-0.084,0.031-0.223,0.104-0.334,0.24c-0.27,0.324-0.465,0.74-0.563,1.239c-0.227,1.151-0.549,1.355-1.34,1.355
	c-0.479,0-0.789-0.279-0.789-0.711c0-0.81,1.211-1.785,2.825-2.284c0.287-0.106,1.161-0.394,2.14-0.377
	c0.392,0.011,0.674,0.073,0.888,0.15c0.936,0.228,1.4,0.857,1.4,1.916v5.745C56.913,64.337,57.14,64.707,57.574,64.707
	 M53.535,64.365c0.523-0.192,1.093-0.431,1.569-0.641l0.003-0.296l0.01-3.508c-0.447,0.136-0.969,0.304-1.46,0.483
	c-0.611,0.223-1.197,0.507-1.591,0.711c-0.624,0.49-0.933,1.067-0.933,1.749c0,0.98,0.418,1.657,1.088,1.823
	C52.561,64.633,53.067,64.535,53.535,64.365 M25.113,22.714l5.469,5.426c0.394,0.391,1.032,0.391,1.426,0l0.151-0.15l-5.317-5.276
	C26.365,22.24,25.591,22.24,25.113,22.714 M19.537,21.532l8.919,8.85c0.394,0.391,1.032,0.391,1.426,0l0.151-0.15l-8.768-8.7
	C20.789,21.058,20.015,21.058,19.537,21.532 M25.393,18.642l5.977,5.931c0.394,0.391,1.032,0.391,1.426,0l0.152-0.151L26.97,18.49
	c-0.393-0.39-1.031-0.39-1.424,0L25.393,18.642z M37.333,20.072l-5.976-5.93c-0.395-0.392-1.034-0.392-1.429,0l-0.15,0.149
	l5.977,5.931c0.394,0.391,1.032,0.391,1.426,0L37.333,20.072z M26.115,15.007l8.919,8.851c0.394,0.391,1.032,0.391,1.426,0
	l0.152-0.151l-8.92-8.851c-0.394-0.391-1.032-0.391-1.426,0L26.115,15.007z M24.926,20.812l-1.399-1.388
	c-0.478-0.474-1.251-0.474-1.729,0l-0.001,0.001l1.551,1.539c0.394,0.391,1.032,0.391,1.426,0L24.926,20.812z M48.703,21.652
	c0.002,2.364,0.884,4.834,0.482,7.185c-0.364,2.129-1.665,4.373-3.105,5.969c-1.172,1.3-2.636,1.851-4.227,2.484
	c-2.588,1.029-4.698,2.532-6.896,4.185c-1.709,1.286-3.475,1.728-5.615,1.765c-2.189,0.038-4.204-0.242-6.003-1.529
	c-2.159-1.545-4.094-3.125-6.586-4.171c-1.599-0.671-3.237-1.13-4.502-2.374c-1.548-1.523-2.879-3.816-3.37-5.925
	C8.42,27.259,9.07,25.269,9.22,23.291c0.191-2.506-0.403-4.843-0.503-7.313c-0.149-3.69,2.565-7.94,5.969-9.4
	c2.458-1.054,4.805-2.017,6.959-3.655c1.524-1.159,2.822-2.315,4.772-2.669c2.192-0.398,4.922-0.413,6.974,0.574
	c1.972,0.949,3.57,2.647,5.458,3.766c2.164,1.201,4.936,1.787,6.801,3.459c1.721,1.543,3.015,4.077,3.448,6.321
	C49.557,16.753,48.7,19.256,48.703,21.652 M47.874,25.53c-0.32-2.177-0.415-4.344-0.177-6.537c0.196-1.812,0.618-3.464,0.008-5.246
	c-0.767-2.242-2.052-4.439-4.24-5.524c-1.715-0.851-3.515-1.462-5.198-2.396c-1.922-1.139-3.624-3.057-5.716-3.857
	c-2.121-0.812-5.403-0.816-7.482,0.151c-2.136,0.994-3.824,2.891-5.918,4.02c-1.636,0.882-3.519,1.327-5.107,2.274
	c-1.968,1.174-3.561,3.85-4.05,6.028c-0.352,1.568,0.133,3.161,0.303,4.724c0.256,2.371,0.053,4.659-0.287,7.004
	c-0.305,2.102,0.191,3.736,1.258,5.56c1.172,2.006,2.458,3.113,4.594,3.959c1.748,0.692,3.433,1.46,5.008,2.492
	c1.635,1.071,3.052,2.69,4.957,3.284c1.972,0.615,4.783,0.612,6.725-0.132c1.902-0.728,3.391-2.441,5.111-3.499
	c1.533-0.942,3.157-1.612,4.821-2.284C46.523,33.922,48.482,29.662,47.874,25.53"></path>
</svg>