<svg version="1.1" xmlns="http://www.w3.org/2000/svg" xmlns:xlink="http://www.w3.org/1999/xlink" width="10px" height="15px" viewBox="0 0 18 15">
<svg id="logo" viewBox="0 0 340.8 100"><path d="M137.1 53.4h29.4v46.2h-29v-7h21.6V80.2h-10.5v-7h10.5V60.4h-22v-7zm-22.6-.3c-8.6 0-15 6.2-15 15.2v31.3h7.2V67.9c0-4.7 3-7.9 7.7-7.9s7.7 3.2 7.7 7.9v31.7h7.4V68.3c0-9-6.4-15.2-15-15.2zm-31 29.6L71.4 53.4h-6.6L52.6 82.7V53.4h-7.4v46.2h8.2L68.1 64l14.6 35.6h8.2V53.4h-7.4v29.3zm140.2-29.6c-8.6 0-15 6.2-15 15.2v31.3h7.2V67.9c0-4.7 3-7.9 7.7-7.9s7.7 3.2 7.7 7.9v31.7h7.4V68.3c0-9-6.4-15.2-15-15.2zm62.1.3v29.3l-12.1-29.3H267l-12.1 29.3V53.4h-7.4v46.2h8.2L270.3 64 285 99.6h8.2V53.4h-7.4zm-97.4 6.5c4.7 0 7.5 3.6 7.5 7.9h7.4c0-8.2-6.4-14.8-14.8-14.8-8.3 0-14.8 6.5-14.8 15 0 7.1 3.7 10.9 9.4 13.1 5.9 2.3 10.3 2.7 10.3 7 0 2.8-2 4.9-5.1 4.9-2.4 0-4.7-1.4-5.8-3.9l-4.9 4.9c2.2 3.8 5.9 5.9 11 5.9 6.9 0 12.1-5.1 12.1-12.3 0-5.1-3-8.8-7.3-10.4-6.5-2.5-12.5-2.5-12.5-9.4 0-4.6 2.8-7.9 7.5-7.9zM340.6 32c0 8.5-6.5 15-14.8 15-8.4 0-14.8-6.6-14.8-14.8h7.4c0 4.3 2.8 7.9 7.5 7.9s7.5-3.3 7.5-7.9c0-6.9-6-6.9-12.5-9.4-4.3-1.6-7.3-5.3-7.3-10.4 0-7.2 5.2-12.3 12.1-12.3 5.1 0 8.8 2.1 11 5.9l-4.9 4.9C330.7 8.4 328.4 7 326 7c-3.1 0-5.1 2.1-5.1 4.9 0 4.3 4.4 4.7 10.3 7 5.7 2.2 9.4 6 9.4 13.1zM285.5.4h-7.4v46.2h29.4v-7h-22V.4zM219 19.8h-15.6V.4H196v46.2h7.4V26.8H219v19.8h7.4V.4H219v19.4zm-48.5-1c-6-2.2-10.4-2.6-10.4-6.9 0-2.8 2-4.9 5.1-4.9 2.4 0 4.7 1.4 5.8 3.9l4.9-4.9c-2.2-3.9-5.9-6-10.9-6-6.9 0-12.1 5.1-12.1 12.3 0 5.1 3 8.8 7.3 10.4 6.5 2.5 12.5 2.5 12.5 9.4 0 4.6-2.8 7.9-7.5 7.9s-7.5-3.6-7.5-7.9h-7.4c0 8.2 6.4 14.8 14.8 14.8 8.3 0 14.8-6.5 14.8-15 0-7.1-3.7-10.9-9.4-13.1zm-34.6 13.4L121.1.4h-8.2v46.2h7.4V14.8l14.8 31.8h8.2V.4h-7.4v31.8zm-83.7-5.7l10.5 20.1h-8.4l-9.9-19.8h-1.1v19.8h-7.4V.4h13.5c7.4 0 13.3 4.8 13.3 13.2 0 7.4-4.8 11.8-10.5 12.9zm3.2-12.9c0-3.6-1.9-6.2-5.9-6.2h-6.2v12.4h6.2c3.9 0 5.9-2.6 5.9-6.2zM0 46.6h7.4V26.8h11.3v-7H7.4V7.4h22v-7H0v46.2zM248.6.4l-17 46.2h7.7L242 39H252.4v-7H244.5l7.8-21.7 13.1 36.3h7.7L256 .4h-7.4zM83.5.4L66.4 46.6h7.7l13-36.3L95 32H87.1v7H97.4l2.8 7.6h7.7L90.8.4h-7.3z"></path></svg></svg>