<svg width="162" height="38" viewBox="0 0 162 38" fill="none" xmlns="http://www.w3.org/2000/svg">
<path d="M15.8854 33.2571C15.6671 33.2571 15.5033 33.1509 15.4487 32.9914L5.34928 7.21992C3.82071 3.39404 3.38398 3.02208 1.52787 2.38444L0.163086 1.9062V1.26855H13.6472V1.9062L11.5727 2.43757C9.60741 2.96894 9.22527 3.50032 10.5901 7.16678L16.6497 23.4799C17.1956 24.9146 17.7961 26.7744 17.9053 27.5183H18.0145C18.1783 26.8807 18.7242 25.4991 19.5431 23.4799L25.2752 9.45168C27.6226 3.81914 27.1859 3.07522 25.0568 2.49071L23.0915 1.95934V1.26855H34.7195V1.9062L33.4093 2.38444C31.5532 3.02208 31.1164 3.55345 29.1512 8.22952L18.5058 32.9383C18.4512 33.0977 18.2875 33.204 18.0691 33.204H15.8854V33.2571Z" fill="white" fill-opacity="0.33"/>
<path d="M40.0146 33.204V32.5664L42.0891 31.9818C44.0544 31.4505 44.3274 31.1848 44.3274 27.0932V7.37933C44.3274 3.28777 44.0544 3.02208 42.0891 2.49071L40.0146 1.9062V1.26855H61.9604C62.1788 1.26855 62.3972 1.4811 62.3972 1.69365V7.53874H61.9604C61.7421 7.53874 61.5783 7.37933 61.5237 7.21992L61.0324 5.41325C60.541 3.65973 59.5038 3.18149 54.2084 3.18149H49.5682C49.3498 3.18149 49.1314 3.39404 49.1314 3.60659V14.8717C49.1314 15.1374 49.3498 15.2968 49.5682 15.2968H54.1538C58.5212 15.2968 59.1763 15.1374 59.6676 13.4901L60.1043 12.0554C60.1589 11.8429 60.3227 11.7366 60.541 11.7366H60.9232V20.9824H60.541C60.3227 20.9824 60.1589 20.8762 60.1043 20.6636L59.613 19.0164C59.1217 17.3691 58.5212 17.2097 54.1538 17.2097H49.5682C49.3498 17.2097 49.1314 17.4223 49.1314 17.6348V26.2962C49.1314 30.7597 48.8039 31.1848 51.7518 31.1848H55.4094C60.2681 31.1848 61.6875 30.4409 62.6155 28.4748L63.489 26.615C63.5982 26.4024 63.8165 26.2962 64.0349 26.3493C64.3079 26.4024 64.417 26.6681 64.3624 26.8807L63.1068 32.7258C63.0522 32.9383 62.8885 33.0977 62.6701 33.0977L40.0146 33.204Z" fill="white" fill-opacity="0.33"/>
<path d="M111.42 24.7018C111.748 24.5955 112.021 25.0737 112.021 25.0737L112.894 27.2524C113.767 29.2716 116.006 31.0782 120.045 31.0782C123.758 31.0782 127.197 29.1122 127.197 25.0737C127.197 21.8855 124.522 20.0789 121.956 18.9098L118.844 17.4751C115.405 15.881 112.13 13.3836 112.13 9.23887C112.13 3.81888 117.098 0.577514 122.338 0.577514C122.993 0.577514 124.413 0.630651 125.941 0.896337C127.907 1.2683 128.616 1.42771 128.835 0.736926L128.998 0.258691C128.998 0.152417 129.108 0.0461426 129.271 0.0461426H129.817V8.22927C129.817 8.49495 129.599 8.7075 129.326 8.7075C129.108 8.7075 128.944 8.54809 128.889 8.38868L128.343 6.26319C127.907 4.50966 126.105 2.59673 122.011 2.59673C118.899 2.59673 116.006 4.45653 116.006 7.69789C116.006 10.4079 118.681 12.1083 121.41 13.3836L124.467 14.7651C127.907 16.3061 131.346 18.7504 131.346 23.2139C131.346 29.8561 125.559 33.2037 119.663 33.2037C117.316 33.2037 114.368 32.6192 112.293 31.7159C112.13 31.6628 112.075 31.5033 112.021 31.3971L110.983 25.3394L110.929 24.9143C110.929 24.9143 110.929 24.9143 111.42 24.7018Z" fill="white" fill-opacity="0.33"/>
<path d="M114.205 36.4981C114.205 36.7106 114.041 36.9232 113.823 36.9763C105.689 37.9328 95.5894 33.7881 88.6017 23.8514L83.9615 17.3687C83.7431 17.0499 83.9614 16.6248 84.3436 16.6248H84.6711C88.7109 16.6248 92.6415 15.0838 92.6415 9.92947C92.6415 4.45635 89.1476 2.80909 84.5074 2.80909C84.0706 2.80909 83.3609 2.86223 82.7604 2.91537C82.5421 2.91537 82.3237 3.12792 82.3237 3.3936V27.1459C82.3237 31.2375 82.5967 31.5032 84.562 32.0345L86.6364 32.619V33.2567H73.1523V32.619L75.2268 32.0345C77.1921 31.5032 77.4651 31.2375 77.4651 27.1459V7.48516C77.4651 3.3936 77.0829 2.91537 75.1722 2.43713L73.1523 2.11831V1.48066C75.4998 1.37439 80.413 1.16184 86.2543 1.16184C91.768 1.00243 97.8823 2.49027 97.8823 9.07928C97.8823 13.9679 93.2966 16.8904 90.4578 17.9C90.1849 18.0063 90.0757 18.3251 90.2395 18.5908C91.2767 20.2912 92.4777 22.6293 94.716 25.3924C94.716 25.3924 102.85 35.5947 113.714 35.8073C113.987 35.8073 114.151 36.0198 114.151 36.2855L114.205 36.4981Z" fill="white" fill-opacity="0.33"/>
<path d="M137.624 33.2038V32.5662L139.698 31.9817C141.664 31.4503 141.937 31.1846 141.937 27.0931V7.37917C141.937 3.28761 141.718 2.86251 139.753 2.38428L137.624 1.95918V1.32153H159.57C159.788 1.32153 160.007 1.53408 160.007 1.74663V7.59172H159.57C159.351 7.59172 159.188 7.43231 159.133 7.27289L158.642 5.46623C158.15 3.7127 157.113 3.23447 151.818 3.23447H147.178C146.959 3.23447 146.741 3.44702 146.741 3.65957V14.9246C146.741 15.1903 146.959 15.3497 147.178 15.3497H151.763C156.131 15.3497 156.786 15.1903 157.277 13.5431L157.714 12.1084C157.768 11.8958 157.932 11.7896 158.15 11.7896H158.533V21.0354H158.15C157.932 21.0354 157.768 20.9291 157.714 20.7166L157.222 19.0693C156.731 17.4221 156.131 17.2627 151.763 17.2627H147.178C146.959 17.2627 146.741 17.4752 146.741 17.6878V26.3491C146.741 30.8127 146.413 31.2378 149.361 31.2378H153.019C157.877 31.2378 159.297 30.4938 160.225 28.5278L161.098 26.668C161.208 26.4554 161.426 26.3491 161.644 26.4023C161.917 26.4554 162.026 26.7211 161.972 26.9336L160.716 32.7787C160.662 32.9913 160.498 33.1507 160.279 33.1507L137.624 33.2038Z" fill="white" fill-opacity="0.33"/>
</svg>
