<svg width="20" height="21" viewBox="0 0 20 21" fill="none" xmlns="http://www.w3.org/2000/svg">
<g opacity="0.6">
<path d="M16.1708 0.481934H3.8336C1.86056 0.481934 0.252197 2.0903 0.252197 4.06333V16.3967C0.252197 18.3736 1.86056 19.9819 3.8336 19.9819H16.167C18.1438 19.9819 19.7484 18.3736 19.7484 16.4005V4.06333C19.7522 2.0903 18.1438 0.481934 16.1708 0.481934ZM18.7542 16.4005C18.7542 17.8247 17.5949 18.9839 16.1708 18.9839H3.8336C2.40948 18.9839 1.25023 17.8247 1.25023 16.4005V4.06333C1.25023 2.63922 2.40948 1.47997 3.8336 1.47997H16.167C17.5911 1.47997 18.7503 2.63922 18.7503 4.06333V16.4005H18.7542Z" fill="white"/>
<path d="M10.0003 5.53174C7.40971 5.53174 5.30029 7.64115 5.30029 10.2317C5.30029 12.8223 7.40971 14.9317 10.0003 14.9317C12.5909 14.9317 14.7003 12.8223 14.7003 10.2317C14.7003 7.64115 12.5909 5.53174 10.0003 5.53174ZM10.0003 13.8147C8.02406 13.8147 6.41729 12.208 6.41729 10.2317C6.41729 8.2555 8.02406 6.64874 10.0003 6.64874C11.9765 6.64874 13.5833 8.2555 13.5833 10.2317C13.5833 12.208 11.9765 13.8147 10.0003 13.8147Z" fill="white"/>
<path d="M15.4017 4.03247C15.0878 4.03247 14.774 4.1617 14.5524 4.38324C14.3309 4.60478 14.2017 4.91862 14.2017 5.23247C14.2017 5.54632 14.3309 5.86016 14.5524 6.0817C14.774 6.30324 15.0878 6.43247 15.4017 6.43247C15.7155 6.43247 16.0294 6.30324 16.2509 6.0817C16.4724 5.86016 16.6017 5.54632 16.6017 5.23247C16.6017 4.91862 16.4724 4.60478 16.2509 4.38324C16.0294 4.1617 15.7155 4.03247 15.4017 4.03247Z" fill="white"/>
</g>
</svg>
