<svg width="212" height="59" viewBox="0 0 212 59" fill="none" xmlns="http://www.w3.org/2000/svg" class="header__logo">
              <path d="M20.5918 52.1814C20.3059 52.1814 20.0914 52.0384 20.0199 51.8239L6.79245 17.1466C4.79047 11.9987 4.21847 11.4982 1.78749 10.6402L0 9.99667V9.13867H17.6604V9.99667L14.9434 10.7117C12.3694 11.4267 11.8689 12.1416 13.6564 17.0751L21.5928 39.0255C22.3078 40.9559 23.0943 43.4584 23.2373 44.4594H23.3803C23.5948 43.6014 24.3098 41.7424 25.3823 39.0255L32.8898 20.1496C35.9642 12.5706 35.3922 11.5697 32.6038 10.7832L30.0298 10.0682V9.13867H45.2592V9.99667L43.5432 10.6402C41.1122 11.4982 40.5402 12.2131 37.9662 18.5051L24.0238 51.7524C23.9523 51.9669 23.7378 52.1099 23.4518 52.1099H20.5918V52.1814Z" fill="black"></path>
              <path d="M52.1943 52.1099V51.2519L54.9113 50.4654C57.4852 49.7504 57.8427 49.3929 57.8427 43.8874V17.3611C57.8427 11.8557 57.4852 11.4982 54.9113 10.7832L52.1943 9.99667V9.13867H80.9371C81.2231 9.13867 81.5091 9.42467 81.5091 9.71067V17.5756H80.9371C80.6511 17.5756 80.4366 17.3611 80.3651 17.1466L79.7216 14.7156C79.0781 12.3561 77.7196 11.7127 70.7841 11.7127H64.7067C64.4207 11.7127 64.1347 11.9987 64.1347 12.2846V27.4425C64.1347 27.8 64.4207 28.0145 64.7067 28.0145H70.7126C76.4326 28.0145 77.2906 27.8 77.9341 25.5836L78.5061 23.6531C78.5776 23.3671 78.7921 23.2241 79.0781 23.2241H79.5786V35.665H79.0781C78.7921 35.665 78.5776 35.522 78.5061 35.236L77.8626 33.0195C77.2191 30.803 76.4326 30.5885 70.7126 30.5885H64.7067C64.4207 30.5885 64.1347 30.8745 64.1347 31.1605V42.8149C64.1347 48.8209 63.7057 49.3929 67.5667 49.3929H72.3571C78.7206 49.3929 80.5796 48.3919 81.7951 45.7464L82.9391 43.2439C83.0821 42.9579 83.3681 42.8149 83.654 42.8864C84.0115 42.9579 84.1545 43.3154 84.083 43.6014L82.4386 51.4664C82.3671 51.7524 82.1526 51.9669 81.8666 51.9669L52.1943 52.1099Z" fill="black"></path>
              <path d="M145.716 40.6694C146.145 40.5264 146.502 41.1699 146.502 41.1699L147.646 44.1014C148.79 46.8184 151.721 49.2494 157.012 49.2494C161.874 49.2494 166.379 46.6039 166.379 41.1699C166.379 36.8799 162.875 34.449 159.515 32.876L155.439 30.9455C150.935 28.8005 146.645 25.44 146.645 19.8631C146.645 12.5701 153.151 8.20865 160.015 8.20865C160.873 8.20865 162.732 8.28015 164.734 8.63764C167.308 9.13814 168.238 9.35264 168.524 8.42315L168.738 7.77965C168.738 7.63665 168.881 7.49365 169.096 7.49365H169.811V18.5046C169.811 18.8621 169.525 19.1481 169.167 19.1481C168.881 19.1481 168.667 18.9336 168.595 18.7191L167.88 15.8591C167.308 13.4996 164.949 10.9256 159.586 10.9256C155.511 10.9256 151.721 13.4281 151.721 17.7896C151.721 21.4361 155.225 23.724 158.8 25.44L162.804 27.299C167.308 29.3725 171.813 32.6615 171.813 38.6674C171.813 47.6049 164.234 52.1093 156.512 52.1093C153.437 52.1093 149.576 51.3228 146.86 50.1073C146.645 50.0358 146.574 49.8214 146.502 49.6784L145.144 41.5274L145.072 40.9554C145.072 40.9554 145.072 40.9554 145.716 40.6694Z" fill="black"></path>
              <path d="M149.362 56.5422C149.362 56.8282 149.147 57.1142 148.861 57.1857C138.208 58.4727 124.981 52.8957 115.829 39.5253L109.751 30.8024C109.465 30.3734 109.751 29.8014 110.252 29.8014H110.681C115.972 29.8014 121.12 27.7279 121.12 20.7925C121.12 13.428 116.544 11.2115 110.466 11.2115C109.894 11.2115 108.965 11.283 108.178 11.3545C107.892 11.3545 107.606 11.6405 107.606 11.998V43.9583C107.606 49.4638 107.964 49.8213 110.538 50.5363L113.255 51.3228V52.1807H95.5943V51.3228L98.3113 50.5363C100.885 49.8213 101.243 49.4638 101.243 43.9583V17.5035C101.243 11.998 100.742 11.3545 98.2398 10.711L95.5943 10.282V9.42406C98.6688 9.28106 105.104 8.99506 112.754 8.99506C119.976 8.78056 127.984 10.7825 127.984 19.6485C127.984 26.2264 121.978 30.1589 118.26 31.5174C117.902 31.6604 117.759 32.0894 117.974 32.4469C119.332 34.7349 120.905 37.8808 123.837 41.5988C123.837 41.5988 134.49 55.3267 148.718 55.6127C149.076 55.6127 149.29 55.8987 149.29 56.2562L149.362 56.5422Z" fill="black"></path>
              <path d="M180.036 52.1092V51.2512L182.753 50.4647C185.327 49.7497 185.684 49.3922 185.684 43.8867V17.3604C185.684 11.855 185.398 11.283 182.824 10.6395L180.036 10.0675V9.20947H208.779C209.065 9.20947 209.351 9.49547 209.351 9.78147V17.6464H208.779C208.493 17.6464 208.278 17.4319 208.207 17.2174L207.563 14.7864C206.92 12.4269 205.561 11.7835 198.626 11.7835H192.548C192.262 11.7835 191.976 12.0695 191.976 12.3554V27.5133C191.976 27.8708 192.262 28.0853 192.548 28.0853H198.554C204.274 28.0853 205.132 27.8708 205.776 25.6544L206.348 23.7239C206.419 23.4379 206.634 23.2949 206.92 23.2949H207.42V35.7358H206.92C206.634 35.7358 206.419 35.5928 206.348 35.3068L205.704 33.0903C205.061 30.8738 204.274 30.6593 198.554 30.6593H192.548C192.262 30.6593 191.976 30.9453 191.976 31.2313V42.8857C191.976 48.8917 191.547 49.4637 195.408 49.4637H200.199C206.562 49.4637 208.421 48.4627 209.637 45.8172L210.781 43.3147C210.924 43.0287 211.21 42.8857 211.496 42.9572C211.853 43.0287 211.996 43.3862 211.925 43.6722L210.28 51.5372C210.209 51.8232 209.994 52.0377 209.708 52.0377L180.036 52.1092Z" fill="black"></path>
            </svg>